<svg width="16" height="16" viewBox="0 0 16 16" fill="none" xmlns="http://www.w3.org/2000/svg">
<path d="M8.72661 7.99339L15.8473 0.876604C15.9437 0.780304 15.9978 0.649692 15.9978 0.513503C15.9978 0.377313 15.9437 0.246702 15.8473 0.150402C15.751 0.054101 15.6203 0 15.484 0C15.3478 0 15.2171 0.054101 15.1207 0.150402L8 7.26719L0.879267 0.150402C0.782913 0.054101 0.652229 4.48048e-09 0.515964 5.49517e-09C0.379699 6.50986e-09 0.249015 0.054101 0.152661 0.150402C0.0563074 0.246702 0.00217639 0.377313 0.00217639 0.513503C0.00217638 0.649692 0.0563074 0.780304 0.152661 0.876604L7.27339 7.99339L0.152661 15.1102C0.104328 15.1575 0.0659296 15.214 0.0397159 15.2764C0.0135023 15.3387 0 15.4057 0 15.4733C0 15.5409 0.0135023 15.6079 0.0397159 15.6702C0.0659296 15.7326 0.104328 15.7891 0.152661 15.8364C0.199099 15.8867 0.255213 15.927 0.31764 15.9551C0.380067 15.9832 0.447522 15.9984 0.515964 15.9998C0.584964 16.0019 0.653547 15.9883 0.7165 15.96C0.779453 15.9317 0.835119 15.8894 0.879267 15.8364L8 8.71959L15.1207 15.8364C15.1672 15.8867 15.2233 15.927 15.2857 15.9551C15.3481 15.9832 15.4156 15.9984 15.484 15.9998C15.5527 15.9995 15.6205 15.9848 15.683 15.9566C15.7456 15.9285 15.8016 15.8875 15.8473 15.8364C15.8957 15.7891 15.9341 15.7326 15.9603 15.6702C15.9865 15.6079 16 15.5409 16 15.4733C16 15.4057 15.9865 15.3387 15.9603 15.2764C15.9341 15.214 15.8957 15.1575 15.8473 15.1102L8.72661 7.99339Z" fill="#272525"/>
</svg>
