<svg width="71" height="69" viewBox="0 0 71 69" fill="none" xmlns="http://www.w3.org/2000/svg">
<path d="M15.88 29.1524L27.4347 40.6134L67.7418 0.633051C68.0002 0.375306 68.33 0.199606 68.6893 0.128294C69.0487 0.0569827 69.4213 0.0932819 69.7598 0.232576C70.0982 0.37187 70.3873 0.607864 70.5902 0.910549C70.7931 1.21323 70.9006 1.56893 70.8992 1.93241V24.3548C70.8886 24.8455 70.6834 25.3124 70.3282 25.6541L28.2744 67.4669C28.1027 67.6382 27.8986 67.7741 27.6738 67.8668C27.449 67.9596 27.2079 68.0073 26.9644 68.0073C26.721 68.0073 26.4799 67.9596 26.2551 67.8668C26.0303 67.7741 25.8261 67.6382 25.6545 67.4669L1.50378 42.6458C1.15303 42.2962 0.956131 41.823 0.956131 41.3298C0.956131 40.8365 1.15303 40.3634 1.50378 40.0137L13.26 29.1191C13.4339 28.95 13.6398 28.8167 13.8658 28.7268C14.0918 28.6369 14.3335 28.5922 14.577 28.5953C14.8205 28.5984 15.0609 28.6492 15.2846 28.7448C15.5082 28.8404 15.7105 28.9789 15.88 29.1524ZM2.44428 41.7129L27.0316 66.101L69.0854 24.3214V1.96573L28.7783 41.9461C28.6089 42.1215 28.4056 42.261 28.1805 42.3564C27.9553 42.4517 27.7131 42.5009 27.4683 42.5009C27.2235 42.5009 26.9812 42.4517 26.7561 42.3564C26.531 42.261 26.3276 42.1215 26.1583 41.9461L14.4356 30.4851C9.2629 35.0495 3.78785 39.9804 2.3771 41.7129H2.44428Z" fill="#272525"/>
<path d="M2.44428 41.7129L27.0316 66.101L69.0854 24.3214V1.96573L28.7783 41.9461C28.6089 42.1215 28.4056 42.261 28.1805 42.3564C27.9553 42.4517 27.7131 42.5009 27.4683 42.5009C27.2235 42.5009 26.9812 42.4517 26.7561 42.3564C26.531 42.261 26.3276 42.1215 26.1583 41.9461L14.4356 30.4851C9.2629 35.0495 3.78785 39.9804 2.3771 41.7129H2.44428Z" fill="#272525"/>
</svg>
