<svg width="240" height="151" viewBox="0 0 240 151" fill="none" xmlns="http://www.w3.org/2000/svg">
<rect width="240" height="151" fill="#E5E5E5"/>
<path d="M147.895 99.3329H92.7672C92.5659 99.3261 92.3747 99.2431 92.2323 99.1006C92.0899 98.9582 92.0068 98.767 92 98.5657V57.7127C92.0068 57.5114 92.0899 57.3203 92.2323 57.1778C92.3747 57.0354 92.5659 56.9524 92.7672 56.9456H147.895C148.101 56.9454 148.3 57.0254 148.448 57.1685C148.596 57.3117 148.683 57.5068 148.69 57.7127V98.5657C148.683 98.7717 148.596 98.9668 148.448 99.1099C148.3 99.2531 148.101 99.333 147.895 99.3329ZM93.5618 97.7711H147.128V58.4799H93.5618V97.7711Z" fill="#C0C0C0"/>
<path d="M118.495 94.949C115.537 94.949 112.644 94.0716 110.184 92.4277C107.724 90.7839 105.806 88.4474 104.674 85.7138C103.542 82.9802 103.245 79.9722 103.823 77.0702C104.4 74.1682 105.825 71.5025 107.917 69.4103C110.009 67.318 112.675 65.8932 115.577 65.316C118.479 64.7387 121.487 65.035 124.22 66.1673C126.954 67.2996 129.291 69.2171 130.934 71.6773C132.578 74.1375 133.456 77.0299 133.456 79.9888C133.448 83.9542 131.87 87.7552 129.066 90.5592C126.262 93.3633 122.461 94.9418 118.495 94.949ZM118.495 66.6999C115.84 66.6999 113.244 67.4873 111.036 68.9626C108.829 70.4378 107.108 72.5346 106.092 74.9879C105.075 77.4412 104.809 80.1406 105.328 82.745C105.846 85.3494 107.124 87.7416 109.002 89.6193C110.88 91.4969 113.272 92.7756 115.876 93.2936C118.481 93.8117 121.18 93.5458 123.633 92.5296C126.087 91.5135 128.183 89.7926 129.659 87.5848C131.134 85.3769 131.921 82.7811 131.921 80.1258C131.921 78.3626 131.574 76.6168 130.899 74.9879C130.225 73.359 129.236 71.8789 127.989 70.6322C126.742 69.3855 125.262 68.3966 123.633 67.7219C122.004 67.0472 120.259 66.6999 118.495 66.6999Z" fill="#C0C0C0"/>
<path d="M107.727 54.5618H96.3561C96.1454 54.5618 95.9433 54.4781 95.7943 54.3291C95.6452 54.18 95.5615 53.9779 95.5615 53.7672C95.5686 53.5612 95.6555 53.3661 95.8037 53.223C95.952 53.0798 96.15 52.9999 96.3561 53H107.727C107.919 53.0198 108.096 53.1086 108.227 53.2497C108.358 53.3908 108.434 53.5747 108.439 53.7672C108.44 53.9644 108.368 54.155 108.236 54.3019C108.105 54.4487 107.923 54.5414 107.727 54.5618Z" fill="#C0C0C0"/>
<path d="M144.06 67.604H134.196C134.084 67.6013 133.974 67.5748 133.873 67.5265C133.772 67.4783 133.682 67.4092 133.61 67.3238C133.537 67.2384 133.484 67.1387 133.452 67.0312C133.421 66.9236 133.413 66.8107 133.429 66.6999V61.9597C133.436 61.761 133.52 61.5728 133.663 61.4348C133.806 61.2968 133.997 61.2198 134.196 61.2199H144.06C144.16 61.2199 144.26 61.2398 144.353 61.2783C144.446 61.3169 144.531 61.3734 144.602 61.4446C144.673 61.5159 144.73 61.6004 144.768 61.6935C144.807 61.7866 144.827 61.8864 144.827 61.9871V66.6999C144.842 66.8107 144.834 66.9236 144.803 67.0312C144.772 67.1387 144.718 67.2384 144.646 67.3238C144.573 67.4092 144.484 67.4783 144.383 67.5265C144.282 67.5748 144.172 67.6013 144.06 67.604ZM135.127 66.0423H143.347V62.7269H135.127V66.0423Z" fill="#C0C0C0"/>
</svg>
