<svg width="25" height="21" viewBox="0 0 25 21" fill="none" xmlns="http://www.w3.org/2000/svg">
<path d="M24.0377 14.5959C24.0079 14.5656 23.9723 14.5416 23.933 14.5252C23.8937 14.5087 23.8515 14.5003 23.8089 14.5003C23.7663 14.5003 23.7241 14.5087 23.6848 14.5252C23.6456 14.5416 23.61 14.5656 23.5801 14.5959L18.0779 20.1699L6.55858 9.02189L15.2524 0.558495C15.2828 0.528839 15.307 0.493441 15.3235 0.454375C15.34 0.415309 15.3485 0.37336 15.3485 0.330985C15.3485 0.28861 15.34 0.246661 15.3235 0.207595C15.307 0.168529 15.2828 0.133131 15.2524 0.103474C15.2226 0.0732065 15.187 0.0491605 15.1477 0.0327448C15.1084 0.016329 15.0662 0.00787354 15.0236 0.00787354C14.981 0.00787354 14.9388 0.016329 14.8995 0.0327448C14.8602 0.0491605 14.8246 0.0732065 14.7948 0.103474L5.81503 8.79437C5.79796 8.82377 5.78898 8.85712 5.78898 8.89107C5.78898 8.92501 5.79796 8.95836 5.81503 8.98776C5.81503 8.98776 5.81503 8.98776 5.81503 8.98776V20.2609H0.415719C0.339711 20.2751 0.271089 20.3153 0.221714 20.3745C0.17234 20.4337 0.145317 20.5082 0.145317 20.5851C0.145317 20.662 0.17234 20.7365 0.221714 20.7957C0.271089 20.8549 0.339711 20.8951 0.415719 20.9093H18.0893H18.2152L18.3181 20.8411L24.0377 15.0395C24.0957 14.9801 24.1282 14.9005 24.1282 14.8177C24.1282 14.7349 24.0957 14.6553 24.0377 14.5959V14.5959ZM9.16672 20.2837L6.42131 17.4967V9.79542L17.2543 20.3064L9.16672 20.2837ZM6.42131 18.4181L8.29734 20.3064H6.42131V18.4181Z" fill="#272525"/>
<path d="M11.7635 12.3777C11.8269 12.4334 11.9077 12.4655 11.9922 12.4687C12.0355 12.4685 12.0782 12.4593 12.1176 12.4416C12.157 12.424 12.1922 12.3983 12.221 12.3663L24.0492 0.547126C24.0796 0.51747 24.1038 0.482072 24.1203 0.443006C24.1368 0.40394 24.1453 0.361991 24.1453 0.319616C24.1453 0.277241 24.1368 0.235292 24.1203 0.196226C24.1038 0.15716 24.0796 0.121762 24.0492 0.0921054C23.9856 0.0329262 23.9018 0 23.8147 0C23.7276 0 23.6438 0.0329262 23.5802 0.0921054L11.7635 11.9113C11.7039 11.9745 11.6708 12.0579 11.6708 12.1445C11.6708 12.2311 11.7039 12.3144 11.7635 12.3777V12.3777Z" fill="#272525"/>
<path d="M23.5801 6.00736L17.6775 11.9113C17.6333 11.9573 17.6035 12.0151 17.5916 12.0776C17.5797 12.1401 17.5862 12.2047 17.6104 12.2636C17.6346 12.3225 17.6754 12.3732 17.7279 12.4096C17.7804 12.446 17.8423 12.4665 17.9063 12.4687C17.9494 12.4678 17.9919 12.4583 18.0312 12.4407C18.0705 12.4231 18.1058 12.3978 18.1351 12.3663L24.0491 6.46238C24.0796 6.43272 24.1038 6.39733 24.1203 6.35826C24.1368 6.31919 24.1453 6.27724 24.1453 6.23487C24.1453 6.19249 24.1368 6.15054 24.1203 6.11148C24.1038 6.07241 24.0796 6.03701 24.0491 6.00736C23.9856 5.94818 23.9017 5.91525 23.8146 5.91525C23.7276 5.91525 23.6437 5.94818 23.5801 6.00736V6.00736Z" fill="#272525"/>
</svg>
