<svg width="19" height="24" viewBox="0 0 19 24" fill="none" xmlns="http://www.w3.org/2000/svg">
<path d="M17.854 24C17.7894 23.9987 17.7265 23.9787 17.6726 23.9423L9.06871 18L0.498779 23.9423C0.449204 23.9729 0.392359 23.989 0.334409 23.989C0.276458 23.989 0.219613 23.9729 0.170038 23.9423C0.120084 23.9157 0.0780002 23.876 0.0481148 23.8273C0.0182294 23.7787 0.00162167 23.7228 0 23.6654L0 0.323077C0.00282555 0.238306 0.0371733 0.157791 0.0960969 0.0978142C0.15502 0.0378376 0.234122 0.00287604 0.317405 0L17.854 0C17.9322 0.00857154 18.0044 0.0463584 18.0568 0.106043C18.1091 0.165728 18.1379 0.243065 18.1374 0.323077V23.6654C18.1378 23.7247 18.1222 23.783 18.0922 23.8339C18.0622 23.8848 18.019 23.9263 17.9674 23.9538C17.9339 23.9786 17.895 23.9944 17.854 24V24ZM9.06871 17.3077C9.12819 17.2921 9.1906 17.2921 9.25008 17.3077L17.5139 23.0769V0.657692H0.646146V23.0769L8.91001 17.3077C8.96211 17.2945 9.0166 17.2945 9.06871 17.3077Z" fill="#272525"/>
</svg>
