<svg width="53" height="70" viewBox="0 0 53 70" fill="none" xmlns="http://www.w3.org/2000/svg">
<path d="M26.7345 52.0886L26.4498 51.892L26.1655 52.0891L1.18309 69.4117C1.11927 69.4487 1.04771 69.4679 0.975359 69.4679C0.899441 69.4679 0.824381 69.4468 0.75824 69.4061L0.744919 69.3979L0.731111 69.3905C0.664636 69.3551 0.607497 69.3016 0.566424 69.2347C0.526298 69.1694 0.503195 69.0939 0.5 69.0157V0.952079C0.505704 0.831447 0.555321 0.71879 0.636953 0.6357C0.718181 0.553021 0.824975 0.505602 0.93601 0.5H52.0415C52.1357 0.515475 52.2236 0.56367 52.2897 0.639012C52.3611 0.720363 52.4014 0.827353 52.4008 0.93948V0.942308L52.4008 69.024L52.4008 69.0276C52.4014 69.1106 52.3795 69.1916 52.3382 69.2617C52.2969 69.3317 52.2382 69.3876 52.1695 69.4242L52.1372 69.4415L52.1078 69.4632C52.087 69.4786 52.0642 69.49 52.0404 69.4972C51.9649 69.4886 51.8916 69.462 51.8268 69.4186C51.8263 69.4182 51.8257 69.4178 51.8252 69.4174L26.7345 52.0886ZM26.3277 50.9655L26.4527 50.9971L26.5775 50.9644C26.6433 50.947 26.7115 50.9424 26.7786 50.9503L50.7961 67.7177L51.5823 68.2665V67.3077V1.91827V1.41827H51.0823H1.88459H1.38459V1.91827V67.3077V68.2665L2.17081 67.7177L26.1842 50.9533C26.2322 50.9495 26.2806 50.9536 26.3277 50.9655ZM27.2656 50.0708L27.1926 50.0198L27.1065 49.9972C26.8906 49.9405 26.6658 49.9314 26.447 49.9701C26.2536 49.9391 26.0556 49.9478 25.8648 49.9961L25.7762 50.0185L25.7013 50.0708L2.38459 66.3488V2.41827H50.5823V66.3488L27.2656 50.0708Z" fill="#CB1F1F" stroke="black"/>
</svg>
