<svg width="24" height="24" viewBox="0 0 24 24" fill="none" xmlns="http://www.w3.org/2000/svg">
<path d="M5.12091 9.97144L9.08575 13.9041L22.9166 0.18542C23.0052 0.0969784 23.1184 0.0366894 23.2417 0.0122198C23.365 -0.0122497 23.4929 0.000205894 23.609 0.0480027C23.7252 0.0957994 23.8243 0.176778 23.894 0.28064C23.9636 0.384502 24.0005 0.506555 24 0.631279V8.3252C23.9964 8.4936 23.926 8.65379 23.8041 8.77106L9.37389 23.1186C9.31498 23.1773 9.24495 23.2239 9.1678 23.2558C9.09066 23.2876 9.00794 23.304 8.92439 23.304C8.84085 23.304 8.75812 23.2876 8.68098 23.2558C8.60384 23.2239 8.5338 23.1773 8.47489 23.1186L0.187918 14.6015C0.0675642 14.4815 0 14.3192 0 14.1499C0 13.9807 0.0675642 13.8183 0.187918 13.6984L4.22191 9.96001C4.28158 9.90199 4.35222 9.85625 4.42977 9.8254C4.50732 9.79456 4.59026 9.77923 4.67381 9.78029C4.75736 9.78135 4.83987 9.79879 4.9166 9.83159C4.99333 9.8644 5.06277 9.91193 5.12091 9.97144ZM0.510638 14.2814L8.94744 22.6498L23.3776 8.31376V0.642711L9.54678 14.3614C9.48868 14.4216 9.41891 14.4695 9.34165 14.5022C9.2644 14.5349 9.18128 14.5518 9.09728 14.5518C9.01328 14.5518 8.93015 14.5349 8.8529 14.5022C8.77565 14.4695 8.70587 14.4216 8.64778 14.3614L4.62531 10.4287C2.85035 11.995 0.971665 13.6869 0.487586 14.2814H0.510638Z" fill="#272525"/>
</svg>
